<svg width="39" height="32" viewBox="0 0 39 32" fill="none" xmlns="http://www.w3.org/2000/svg">
<path id="Vector" d="M21.125 12.3032V16.168H24.375V20.0327H27.625V16.168H29.575C30.225 18.4868 32.0125 20.0327 34.125 20.0327C36.8875 20.0327 39 17.5206 39 14.2356C39 10.9506 36.8875 8.43848 34.125 8.43848C32.0125 8.43848 30.225 9.98438 29.575 12.3032H21.125ZM34.125 12.3032C35.1 12.3032 35.75 13.0762 35.75 14.2356C35.75 15.395 35.1 16.168 34.125 16.168C33.15 16.168 32.5 15.395 32.5 14.2356C32.5 13.0762 33.15 12.3032 34.125 12.3032ZM13 20.0327C8.6125 20.0327 0 22.5448 0 27.7622V31.627H26V27.7622C26 22.5448 17.3875 20.0327 13 20.0327ZM13 16.168C16.575 16.168 19.5 12.6897 19.5 8.43848C19.5 4.18726 16.575 0.708984 13 0.708984C9.425 0.708984 6.5 4.18726 6.5 8.43848C6.5 12.6897 9.425 16.168 13 16.168Z" fill="#353537"/>
</svg>
