<svg width="39" height="31" viewBox="0 0 39 31" fill="none" xmlns="http://www.w3.org/2000/svg">
<g id="fa-solid:user-edit">
<path id="Vector" d="M13.65 15.9313C17.9583 15.9313 21.45 12.5827 21.45 8.45111C21.45 4.31949 17.9583 0.970947 13.65 0.970947C9.34172 0.970947 5.85 4.31949 5.85 8.45111C5.85 12.5827 9.34172 15.9313 13.65 15.9313ZM19.11 17.8013H18.0923C16.7395 18.3974 15.2344 18.7363 13.65 18.7363C12.0656 18.7363 10.5666 18.3974 9.20766 17.8013H8.19C3.66844 17.8013 0 21.3193 0 25.6555V28.0865C0 29.6352 1.31016 30.8916 2.925 30.8916H19.6767C19.5305 30.4942 19.4695 30.0734 19.5183 29.6468L19.9327 26.0879L20.0058 25.4393L20.4872 24.9776L25.1977 20.4603C23.7047 18.8415 21.5414 17.8013 19.11 17.8013ZM21.8705 26.2925L21.4561 29.8572C21.3891 30.4533 21.9131 30.9559 22.5286 30.8857L26.2397 30.4884L34.643 22.4297L30.2738 18.2396L21.8705 26.2925ZM38.5734 16.6851L36.2639 14.4703C35.6972 13.9268 34.7709 13.9268 34.2042 14.4703L31.9008 16.6793L31.6509 16.9189L36.0263 21.1089L38.5734 18.6662C39.1402 18.1169 39.1402 17.2344 38.5734 16.6851Z" fill="#353537"/>
</g>
</svg>
